<mxfile host="Electron" modified="2023-12-20T11:03:55.483Z" agent="Mozilla/5.0 (Windows NT 10.0; Win64; x64) AppleWebKit/537.36 (KHTML, like Gecko) draw.io/22.1.2 Chrome/114.0.5735.289 Electron/25.9.4 Safari/537.36" etag="luovuHloifEyvUKwPp45" version="22.1.2" type="device">
  <diagram name="Page-1" id="4ZJ5s6FoKHi9sHQzlxWB">
    <mxGraphModel dx="1687" dy="1080" grid="1" gridSize="10" guides="1" tooltips="1" connect="1" arrows="1" fold="1" page="1" pageScale="1" pageWidth="1169" pageHeight="1654" math="0" shadow="0">
      <root>
        <mxCell id="0" />
        <mxCell id="1" parent="0" />
        <mxCell id="dxBVv3n8FC3PwVA6f5qS-10" value="" style="rounded=1;whiteSpace=wrap;html=1;fillColor=none;" vertex="1" parent="1">
          <mxGeometry x="360" y="130" width="700" height="430" as="geometry" />
        </mxCell>
        <mxCell id="dxBVv3n8FC3PwVA6f5qS-15" value="" style="rounded=1;whiteSpace=wrap;html=1;fillColor=none;" vertex="1" parent="1">
          <mxGeometry x="590" y="220" width="440" height="320" as="geometry" />
        </mxCell>
        <mxCell id="dxBVv3n8FC3PwVA6f5qS-28" value="&lt;br&gt;entry /afficherMessage(&lt;br&gt;&quot;problème à diagnostiquer&quot;)" style="rounded=1;whiteSpace=wrap;html=1;" vertex="1" parent="1">
          <mxGeometry x="620" y="434" width="120" height="90" as="geometry" />
        </mxCell>
        <mxCell id="dxBVv3n8FC3PwVA6f5qS-25" value="&lt;br&gt;entry /afficherMessage(&lt;br&gt;&quot;charger papier&quot;)" style="rounded=1;whiteSpace=wrap;html=1;" vertex="1" parent="1">
          <mxGeometry x="890" y="310" width="120" height="70" as="geometry" />
        </mxCell>
        <mxCell id="dxBVv3n8FC3PwVA6f5qS-3" value="" style="ellipse;whiteSpace=wrap;html=1;aspect=fixed;fillColor=#000000;strokeColor=none;" vertex="1" parent="1">
          <mxGeometry x="70" y="170" width="20" height="20" as="geometry" />
        </mxCell>
        <mxCell id="dxBVv3n8FC3PwVA6f5qS-4" value="" style="endArrow=open;html=1;rounded=0;endFill=0;exitX=1;exitY=0.5;exitDx=0;exitDy=0;entryX=0;entryY=0.5;entryDx=0;entryDy=0;" edge="1" parent="1" source="dxBVv3n8FC3PwVA6f5qS-3" target="dxBVv3n8FC3PwVA6f5qS-5">
          <mxGeometry width="50" height="50" relative="1" as="geometry">
            <mxPoint x="190" y="220" as="sourcePoint" />
            <mxPoint x="300" y="190" as="targetPoint" />
          </mxGeometry>
        </mxCell>
        <mxCell id="dxBVv3n8FC3PwVA6f5qS-5" value="en préchauffage" style="rounded=1;whiteSpace=wrap;html=1;" vertex="1" parent="1">
          <mxGeometry x="380" y="150" width="120" height="60" as="geometry" />
        </mxCell>
        <mxCell id="dxBVv3n8FC3PwVA6f5qS-6" value="appuyer sur&lt;br&gt;bouton ON/OFF" style="text;html=1;align=center;verticalAlign=middle;resizable=0;points=[];autosize=1;strokeColor=none;fillColor=none;" vertex="1" parent="1">
          <mxGeometry x="140" y="140" width="110" height="40" as="geometry" />
        </mxCell>
        <mxCell id="dxBVv3n8FC3PwVA6f5qS-7" value="" style="endArrow=open;html=1;rounded=0;endFill=0;exitX=0.5;exitY=1;exitDx=0;exitDy=0;entryX=0.5;entryY=0;entryDx=0;entryDy=0;" edge="1" parent="1" source="dxBVv3n8FC3PwVA6f5qS-5" target="dxBVv3n8FC3PwVA6f5qS-8">
          <mxGeometry width="50" height="50" relative="1" as="geometry">
            <mxPoint x="280" y="190" as="sourcePoint" />
            <mxPoint x="640" y="180" as="targetPoint" />
          </mxGeometry>
        </mxCell>
        <mxCell id="dxBVv3n8FC3PwVA6f5qS-8" value="prête" style="rounded=1;whiteSpace=wrap;html=1;" vertex="1" parent="1">
          <mxGeometry x="380" y="270" width="120" height="60" as="geometry" />
        </mxCell>
        <mxCell id="dxBVv3n8FC3PwVA6f5qS-9" value="[&amp;gt;30s]" style="text;html=1;align=center;verticalAlign=middle;resizable=0;points=[];autosize=1;strokeColor=none;fillColor=none;" vertex="1" parent="1">
          <mxGeometry x="370" y="220" width="60" height="30" as="geometry" />
        </mxCell>
        <mxCell id="dxBVv3n8FC3PwVA6f5qS-12" value="allumée" style="rounded=1;whiteSpace=wrap;html=1;" vertex="1" parent="1">
          <mxGeometry x="980" y="130" width="80" height="40" as="geometry" />
        </mxCell>
        <mxCell id="dxBVv3n8FC3PwVA6f5qS-14" value="" style="endArrow=open;html=1;rounded=0;endFill=0;exitX=1;exitY=0.5;exitDx=0;exitDy=0;entryX=0;entryY=0.5;entryDx=0;entryDy=0;" edge="1" parent="1" source="dxBVv3n8FC3PwVA6f5qS-8" target="dxBVv3n8FC3PwVA6f5qS-16">
          <mxGeometry width="50" height="50" relative="1" as="geometry">
            <mxPoint x="450" y="220" as="sourcePoint" />
            <mxPoint x="470" y="320" as="targetPoint" />
          </mxGeometry>
        </mxCell>
        <mxCell id="dxBVv3n8FC3PwVA6f5qS-16" value="en production" style="rounded=1;whiteSpace=wrap;html=1;" vertex="1" parent="1">
          <mxGeometry x="620" y="270" width="120" height="60" as="geometry" />
        </mxCell>
        <mxCell id="dxBVv3n8FC3PwVA6f5qS-17" value="appuyer sur&lt;br&gt;bouton START" style="text;html=1;align=center;verticalAlign=middle;resizable=0;points=[];autosize=1;strokeColor=none;fillColor=none;" vertex="1" parent="1">
          <mxGeometry x="500" y="260" width="100" height="40" as="geometry" />
        </mxCell>
        <mxCell id="dxBVv3n8FC3PwVA6f5qS-18" value="" style="endArrow=classic;html=1;rounded=0;exitX=0.25;exitY=0;exitDx=0;exitDy=0;entryX=0.5;entryY=0;entryDx=0;entryDy=0;" edge="1" parent="1" source="dxBVv3n8FC3PwVA6f5qS-16" target="dxBVv3n8FC3PwVA6f5qS-16">
          <mxGeometry width="50" height="50" relative="1" as="geometry">
            <mxPoint x="620" y="190" as="sourcePoint" />
            <mxPoint x="1000" y="210" as="targetPoint" />
            <Array as="points">
              <mxPoint x="650" y="250" />
              <mxPoint x="680" y="250" />
            </Array>
          </mxGeometry>
        </mxCell>
        <mxCell id="dxBVv3n8FC3PwVA6f5qS-19" value="[reste des copies&lt;br&gt;à produire]" style="text;html=1;align=center;verticalAlign=middle;resizable=0;points=[];autosize=1;strokeColor=none;fillColor=none;" vertex="1" parent="1">
          <mxGeometry x="670" y="220" width="110" height="40" as="geometry" />
        </mxCell>
        <mxCell id="dxBVv3n8FC3PwVA6f5qS-20" value="en production" style="rounded=1;whiteSpace=wrap;html=1;" vertex="1" parent="1">
          <mxGeometry x="950" y="220" width="80" height="40" as="geometry" />
        </mxCell>
        <mxCell id="dxBVv3n8FC3PwVA6f5qS-21" value="en attente&lt;br&gt;de papier" style="rounded=1;whiteSpace=wrap;html=1;" vertex="1" parent="1">
          <mxGeometry x="890" y="270" width="120" height="60" as="geometry" />
        </mxCell>
        <mxCell id="dxBVv3n8FC3PwVA6f5qS-22" value="" style="endArrow=open;html=1;rounded=0;endFill=0;exitX=1;exitY=0.25;exitDx=0;exitDy=0;entryX=0;entryY=0.25;entryDx=0;entryDy=0;" edge="1" parent="1" source="dxBVv3n8FC3PwVA6f5qS-16" target="dxBVv3n8FC3PwVA6f5qS-21">
          <mxGeometry width="50" height="50" relative="1" as="geometry">
            <mxPoint x="460" y="220" as="sourcePoint" />
            <mxPoint x="460" y="280" as="targetPoint" />
          </mxGeometry>
        </mxCell>
        <mxCell id="dxBVv3n8FC3PwVA6f5qS-23" value="bloquée" style="rounded=1;whiteSpace=wrap;html=1;" vertex="1" parent="1">
          <mxGeometry x="620" y="394" width="120" height="60" as="geometry" />
        </mxCell>
        <mxCell id="dxBVv3n8FC3PwVA6f5qS-24" value="[bac à &lt;br&gt;papier vide]" style="text;html=1;align=center;verticalAlign=middle;resizable=0;points=[];autosize=1;strokeColor=none;fillColor=none;" vertex="1" parent="1">
          <mxGeometry x="790" y="240" width="90" height="40" as="geometry" />
        </mxCell>
        <mxCell id="dxBVv3n8FC3PwVA6f5qS-26" value="" style="endArrow=open;html=1;rounded=0;endFill=0;exitX=0.25;exitY=1;exitDx=0;exitDy=0;entryX=0.25;entryY=0;entryDx=0;entryDy=0;" edge="1" parent="1" source="dxBVv3n8FC3PwVA6f5qS-16" target="dxBVv3n8FC3PwVA6f5qS-23">
          <mxGeometry width="50" height="50" relative="1" as="geometry">
            <mxPoint x="520" y="310" as="sourcePoint" />
            <mxPoint x="630" y="310" as="targetPoint" />
          </mxGeometry>
        </mxCell>
        <mxCell id="dxBVv3n8FC3PwVA6f5qS-27" value="[blocage]" style="text;html=1;align=center;verticalAlign=middle;resizable=0;points=[];autosize=1;strokeColor=none;fillColor=none;" vertex="1" parent="1">
          <mxGeometry x="590" y="345" width="70" height="30" as="geometry" />
        </mxCell>
        <mxCell id="dxBVv3n8FC3PwVA6f5qS-29" value="" style="endArrow=open;html=1;rounded=0;endFill=0;exitX=0.75;exitY=0;exitDx=0;exitDy=0;entryX=0.75;entryY=1;entryDx=0;entryDy=0;" edge="1" parent="1" source="dxBVv3n8FC3PwVA6f5qS-23" target="dxBVv3n8FC3PwVA6f5qS-16">
          <mxGeometry width="50" height="50" relative="1" as="geometry">
            <mxPoint x="660" y="340" as="sourcePoint" />
            <mxPoint x="660" y="390" as="targetPoint" />
          </mxGeometry>
        </mxCell>
        <mxCell id="dxBVv3n8FC3PwVA6f5qS-30" value="[corriger le&lt;br&gt;problème]" style="text;html=1;align=center;verticalAlign=middle;resizable=0;points=[];autosize=1;strokeColor=none;fillColor=none;" vertex="1" parent="1">
          <mxGeometry x="710" y="340" width="80" height="40" as="geometry" />
        </mxCell>
        <mxCell id="dxBVv3n8FC3PwVA6f5qS-31" value="mettre le&lt;br&gt;papier" style="text;html=1;align=center;verticalAlign=middle;resizable=0;points=[];autosize=1;strokeColor=none;fillColor=none;" vertex="1" parent="1">
          <mxGeometry x="810" y="313" width="70" height="40" as="geometry" />
        </mxCell>
        <mxCell id="dxBVv3n8FC3PwVA6f5qS-32" value="" style="endArrow=open;html=1;rounded=0;endFill=0;exitX=0;exitY=0.75;exitDx=0;exitDy=0;entryX=1;entryY=0.75;entryDx=0;entryDy=0;" edge="1" parent="1" source="dxBVv3n8FC3PwVA6f5qS-21" target="dxBVv3n8FC3PwVA6f5qS-16">
          <mxGeometry width="50" height="50" relative="1" as="geometry">
            <mxPoint x="750" y="295" as="sourcePoint" />
            <mxPoint x="840" y="295" as="targetPoint" />
          </mxGeometry>
        </mxCell>
        <mxCell id="dxBVv3n8FC3PwVA6f5qS-34" value="" style="endArrow=open;html=1;rounded=0;endFill=0;exitX=0;exitY=0.75;exitDx=0;exitDy=0;entryX=0.5;entryY=1;entryDx=0;entryDy=0;" edge="1" parent="1" source="dxBVv3n8FC3PwVA6f5qS-15" target="dxBVv3n8FC3PwVA6f5qS-8">
          <mxGeometry width="50" height="50" relative="1" as="geometry">
            <mxPoint x="510" y="310" as="sourcePoint" />
            <mxPoint x="620" y="310" as="targetPoint" />
            <Array as="points">
              <mxPoint x="440" y="460" />
            </Array>
          </mxGeometry>
        </mxCell>
        <mxCell id="dxBVv3n8FC3PwVA6f5qS-35" value="appuyer sur&lt;br&gt;bouton STOP" style="text;html=1;align=center;verticalAlign=middle;resizable=0;points=[];autosize=1;strokeColor=none;fillColor=none;" vertex="1" parent="1">
          <mxGeometry x="490" y="420" width="100" height="40" as="geometry" />
        </mxCell>
        <mxCell id="dxBVv3n8FC3PwVA6f5qS-36" value="" style="ellipse;whiteSpace=wrap;html=1;aspect=fixed;fillColor=#000000;strokeColor=none;" vertex="1" parent="1">
          <mxGeometry x="70" y="442" width="20" height="20" as="geometry" />
        </mxCell>
        <mxCell id="dxBVv3n8FC3PwVA6f5qS-37" value="" style="ellipse;whiteSpace=wrap;html=1;aspect=fixed;fillColor=none;strokeColor=default;" vertex="1" parent="1">
          <mxGeometry x="65" y="437" width="30" height="30" as="geometry" />
        </mxCell>
        <mxCell id="dxBVv3n8FC3PwVA6f5qS-38" value="" style="endArrow=open;html=1;rounded=0;endFill=0;exitX=0;exitY=0.75;exitDx=0;exitDy=0;entryX=1;entryY=0.5;entryDx=0;entryDy=0;" edge="1" parent="1" source="dxBVv3n8FC3PwVA6f5qS-10" target="dxBVv3n8FC3PwVA6f5qS-39">
          <mxGeometry width="50" height="50" relative="1" as="geometry">
            <mxPoint x="100" y="190" as="sourcePoint" />
            <mxPoint x="220" y="490" as="targetPoint" />
          </mxGeometry>
        </mxCell>
        <mxCell id="dxBVv3n8FC3PwVA6f5qS-39" value="éteinte" style="rounded=1;whiteSpace=wrap;html=1;" vertex="1" parent="1">
          <mxGeometry x="130" y="422" width="120" height="60" as="geometry" />
        </mxCell>
        <mxCell id="dxBVv3n8FC3PwVA6f5qS-40" value="" style="endArrow=open;html=1;rounded=0;endFill=0;exitX=0;exitY=0.5;exitDx=0;exitDy=0;entryX=1;entryY=0.5;entryDx=0;entryDy=0;" edge="1" parent="1" source="dxBVv3n8FC3PwVA6f5qS-39" target="dxBVv3n8FC3PwVA6f5qS-37">
          <mxGeometry width="50" height="50" relative="1" as="geometry">
            <mxPoint x="310" y="462" as="sourcePoint" />
            <mxPoint x="260" y="462" as="targetPoint" />
          </mxGeometry>
        </mxCell>
        <mxCell id="dxBVv3n8FC3PwVA6f5qS-41" value="relâcher le&lt;br&gt;bouton ON/OFF" style="text;html=1;align=center;verticalAlign=middle;resizable=0;points=[];autosize=1;strokeColor=none;fillColor=none;" vertex="1" parent="1">
          <mxGeometry x="250" y="410" width="110" height="40" as="geometry" />
        </mxCell>
      </root>
    </mxGraphModel>
  </diagram>
</mxfile>
